<svg xmlns="http://www.w3.org/2000/svg" width="29.25" height="29.25"><g id="Icon_ionic-ios-arrow-dropright" data-name="Icon ionic-ios-arrow-dropright" transform="translate(-3.375 -3.375)" fill="#fff"><path id="パス_4104" data-name="パス 4104" d="M14.815 10.378a1.362 1.362 0 011.92 0l6.708 6.729a1.356 1.356 0 01.042 1.87l-6.609 6.63a1.355 1.355 0 11-1.92-1.912l5.618-5.7-5.759-5.7a1.341 1.341 0 010-1.917z"/><path id="パス_4105" data-name="パス 4105" d="M3.375 18A14.625 14.625 0 1018 3.375 14.623 14.623 0 003.375 18zm2.25 0a12.37 12.37 0 0121.122-8.747A12.37 12.37 0 119.253 26.747 12.269 12.269 0 015.625 18z"/></g></svg>