<svg xmlns="http://www.w3.org/2000/svg" width="281.171" height="30.413"><path d="M21.168 26.406a9.591 9.591 0 01-4.46 2.979 18.808 18.808 0 01-6.631.986 10.285 10.285 0 01-5.117-1.279 8.93 8.93 0 01-3.476-3.623 12.819 12.819 0 01-1.446-5.391 24.6 24.6 0 01.6-6.611 18.6 18.6 0 012.715-6.66 12.69 12.69 0 014.615-4.278 12.171 12.171 0 015.977-1.357 9.886 9.886 0 016.973 2.51 10.412 10.412 0 012.871 6.963l-5.508-.02a5.826 5.826 0 00-1.27-3.516A4.326 4.326 0 0013.868 5.9a6.168 6.168 0 00-5.693 3.174q-2.08 3.291-2.373 9.541a8.388 8.388 0 001.023 5.174 4.248 4.248 0 003.721 1.875 7.928 7.928 0 004.961-1.387l.957-4.9h-5.196l.762-4.316h10.86zm9.3 3.594h-5.547l5.215-30h5.532zM47.226 8.477a8.476 8.476 0 014.814 1.436 8.084 8.084 0 012.969 3.848 11.9 11.9 0 01.674 5.439 12.859 12.859 0 01-3.506 8.154 9.9 9.9 0 01-7.549 3.037 8.451 8.451 0 01-4.766-1.416 8.054 8.054 0 01-2.969-3.818 11.642 11.642 0 01-.684-5.391 13.238 13.238 0 013.555-8.32 9.7 9.7 0 017.462-2.969zm-5.566 13.3a4.889 4.889 0 00.879 2.959 2.919 2.919 0 002.363 1.123 4.28 4.28 0 003.984-2.334 11.648 11.648 0 001.348-6.338 5.318 5.318 0 00-.908-3 2.871 2.871 0 00-2.373-1.162 4.286 4.286 0 00-3.936 2.314 11.528 11.528 0 00-1.358 6.438zm35.918-2.285a15.153 15.153 0 01-3.047 8.008 7.582 7.582 0 01-6.363 2.91 5.893 5.893 0 01-5.078-2.7L62.284 30h-5.016l5.2-30h5.52l-2.129 10.8a6.584 6.584 0 015.156-2.324 5.962 5.962 0 014.814 2.2 9.724 9.724 0 011.865 5.967 22.832 22.832 0 01-.117 2.849zm-5.469-.41a16.289 16.289 0 00.117-2.578q-.215-3.4-2.812-3.457a4.586 4.586 0 00-4.046 2.207l-1.523 8.4a3.144 3.144 0 003.166 2.186q4.063.117 4.98-5.9zM91.523 30a5.7 5.7 0 01-.215-1.914 7.157 7.157 0 01-5.391 2.3 6.486 6.486 0 01-4.6-1.807 5.466 5.466 0 01-1.709-4.365 6.318 6.318 0 012.9-5.3 13.165 13.165 0 017.412-1.846l2.578.039.273-1.27a4.409 4.409 0 00.059-1.23 2.115 2.115 0 00-.693-1.436 2.388 2.388 0 00-1.572-.537 3.364 3.364 0 00-2.187.635 3.077 3.077 0 00-1.152 1.943l-5.527.02a6.143 6.143 0 012.783-4.912 10.779 10.779 0 016.533-1.846 7.792 7.792 0 015.625 2.139 6.257 6.257 0 011.7 5.3l-1.622 10.122-.1 1.25a6.03 6.03 0 00.332 2.344l-.017.371zm-4.239-3.887a5.044 5.044 0 004.16-2.07l.684-3.652-1.914-.02a5.347 5.347 0 00-4.395 1.855 3.23 3.23 0 00-.605 1.582 1.875 1.875 0 00.439 1.67 2.226 2.226 0 001.631.635zM106.113 30h-5.545l5.215-30h5.527zm30.527-7.6q.41-2.324-2.285-3.555l-3.77-1.5q-6.562-2.93-6.23-8.066a7.409 7.409 0 011.563-4.219 9.394 9.394 0 014-2.881 14.176 14.176 0 015.566-1.006 9.644 9.644 0 016.66 2.451 8.168 8.168 0 012.5 6.357h-5.7a4.069 4.069 0 00-.85-3.008 3.827 3.827 0 00-2.939-1.113 5.926 5.926 0 00-3.4.889 3.646 3.646 0 00-1.717 2.551q-.371 2.129 2.852 3.379l2.578.977 1.484.684q5.762 2.852 5.391 8.008a7.726 7.726 0 01-1.611 4.346 9.083 9.083 0 01-3.906 2.8 13.913 13.913 0 01-5.439.918 12.183 12.183 0 01-5.391-1.27 8.372 8.372 0 01-3.594-3.418 8.851 8.851 0 01-1.074-4.687l5.723.02q-.273 4.629 4.551 4.707a5.979 5.979 0 003.438-.918 3.574 3.574 0 001.6-2.446zm19.219-18.73l-.918 5.2h3.516l-.723 4.141h-3.516l-1.8 10.586a2.692 2.692 0 00.156 1.523q.273.527 1.328.566.312.02 1.68-.1l-.387 4.314a9.264 9.264 0 01-3.164.449 4.964 4.964 0 01-4.043-1.7 6.139 6.139 0 01-1.094-4.492l1.816-11.152h-2.988l.723-4.141h2.988l.9-5.2zM170.214 30a5.7 5.7 0 01-.215-1.914 7.157 7.157 0 01-5.391 2.3 6.486 6.486 0 01-4.6-1.807 5.466 5.466 0 01-1.709-4.365 6.318 6.318 0 012.9-5.3 13.165 13.165 0 017.412-1.846l2.578.039.273-1.27a4.409 4.409 0 00.059-1.23 2.115 2.115 0 00-.693-1.436 2.388 2.388 0 00-1.572-.537 3.364 3.364 0 00-2.187.635 3.077 3.077 0 00-1.152 1.943l-5.527.02a6.143 6.143 0 012.783-4.912 10.779 10.779 0 016.533-1.846 7.792 7.792 0 015.625 2.139 6.257 6.257 0 011.7 5.3l-1.622 10.122-.1 1.25a6.03 6.03 0 00.332 2.344l-.02.371zm-4.238-3.887a5.044 5.044 0 004.16-2.07l.684-3.652-1.914-.02a5.347 5.347 0 00-4.395 1.855 3.23 3.23 0 00-.605 1.582 1.875 1.875 0 00.439 1.67 2.226 2.226 0 001.631.635zm21.719-17.266l-.469 2.5a7.6 7.6 0 016.152-2.871 5.07 5.07 0 014.414 2.188 8.814 8.814 0 011.035 5.9L196.601 30h-5.508l2.266-13.5a6.319 6.319 0 00.039-1.387 2.237 2.237 0 00-2.5-2.051 4.74 4.74 0 00-3.887 2.012L184.374 30h-5.506l3.672-21.133zm23.711-.391a6.014 6.014 0 014.762 2.364L218.241 0h5.527l-5.2 30h-4.922l.322-2.266a6.84 6.84 0 01-5.512 2.676 6.083 6.083 0 01-3.457-1.035 6.518 6.518 0 01-2.295-2.92 11.761 11.761 0 01-.889-4.248 16.008 16.008 0 01.059-2.383l.117-.879a16.917 16.917 0 011.807-5.7 9.415 9.415 0 013.281-3.652 7.736 7.736 0 014.327-1.136zm-4 11.367a15.817 15.817 0 00-.1 2.5q.2 3.438 2.773 3.5a4.713 4.713 0 004.043-2.187l1.5-8.4a3.119 3.119 0 00-3.047-2.187 4.014 4.014 0 00-3.35 1.553 10.441 10.441 0 00-1.823 5.222zM235.195 30a5.7 5.7 0 01-.215-1.914 7.157 7.157 0 01-5.391 2.3 6.486 6.486 0 01-4.6-1.807 5.466 5.466 0 01-1.709-4.365 6.318 6.318 0 012.9-5.3 13.165 13.165 0 017.412-1.846l2.578.039.273-1.27a4.409 4.409 0 00.059-1.23 2.115 2.115 0 00-.693-1.436 2.388 2.388 0 00-1.572-.537 3.364 3.364 0 00-2.187.635 3.077 3.077 0 00-1.152 1.943l-5.527.02a6.143 6.143 0 012.783-4.912 10.779 10.779 0 016.533-1.846 7.792 7.792 0 015.625 2.139 6.257 6.257 0 011.7 5.3l-1.622 10.122-.1 1.25a6.03 6.03 0 00.332 2.344l-.02.371zm-4.238-3.887a5.044 5.044 0 004.16-2.07l.684-3.652-1.914-.02a5.347 5.347 0 00-4.395 1.855 3.23 3.23 0 00-.605 1.582 1.875 1.875 0 00.439 1.67 2.226 2.226 0 001.63.635zm27.48-11.953a11.371 11.371 0 00-1.855-.2 5.339 5.339 0 00-4.668 2.207L249.468 30h-5.5l3.672-21.133 5.176-.02-.508 2.578a5.812 5.812 0 014.922-2.988 8.034 8.034 0 011.914.273zm10.371-5.7a6.014 6.014 0 014.766 2.363L275.644 0h5.524l-5.2 30h-4.922l.313-2.266a6.84 6.84 0 01-5.5 2.676 6.083 6.083 0 01-3.457-1.035 6.518 6.518 0 01-2.295-2.92 11.761 11.761 0 01-.889-4.248 16.008 16.008 0 01.059-2.383l.117-.879a16.917 16.917 0 011.807-5.7 9.415 9.415 0 013.281-3.652 7.736 7.736 0 014.326-1.136zm-4 11.367a15.819 15.819 0 00-.1 2.5q.2 3.438 2.773 3.5a4.714 4.714 0 004.043-2.187l1.5-8.4a3.119 3.119 0 00-3.047-2.187 4.014 4.014 0 00-3.35 1.553 10.441 10.441 0 00-1.823 5.218z" fill="#023e78"/></svg>