<svg xmlns="http://www.w3.org/2000/svg" width="365.523" height="39.538"><path d="M27.523 34.328a12.469 12.469 0 01-5.8 3.872 24.45 24.45 0 01-8.62 1.282 13.371 13.371 0 01-6.652-1.663 11.609 11.609 0 01-4.52-4.71 16.664 16.664 0 01-1.879-7.008 31.983 31.983 0 01.774-8.595 24.173 24.173 0 013.529-8.658 16.5 16.5 0 016-5.561 15.822 15.822 0 017.77-1.765q5.789.1 9.064 3.263t3.732 9.052l-7.16-.025a7.574 7.574 0 00-1.65-4.57 5.624 5.624 0 00-4.088-1.574 8.018 8.018 0 00-7.4 4.126q-2.7 4.278-3.085 12.4-.254 4.342 1.333 6.729a5.522 5.522 0 004.837 2.438 10.307 10.307 0 006.449-1.8l1.244-6.373h-6.754l.99-5.611h14.117zM39.609 39h-7.211l6.779-39h7.186zm21.785-27.98a11.019 11.019 0 016.259 1.866 10.51 10.51 0 013.859 5 15.475 15.475 0 01.876 7.071 16.716 16.716 0 01-4.558 10.6 12.869 12.869 0 01-9.813 3.951 10.986 10.986 0 01-6.2-1.841 10.47 10.47 0 01-3.855-4.967 15.134 15.134 0 01-.889-7.008 17.209 17.209 0 014.621-10.816 12.6 12.6 0 019.7-3.856zm-7.236 17.291a6.355 6.355 0 001.143 3.847 3.8 3.8 0 003.072 1.46 5.564 5.564 0 005.18-3.034 15.143 15.143 0 001.752-8.239 6.913 6.913 0 00-1.181-3.9 3.732 3.732 0 00-3.085-1.511 5.571 5.571 0 00-5.116 3.009q-1.918 3.112-1.766 8.368zm46.693-2.971a19.7 19.7 0 01-3.961 10.41 9.857 9.857 0 01-8.278 3.783 7.661 7.661 0 01-6.6-3.5L80.97 39h-6.525l6.754-39h7.183l-2.768 14.041a8.559 8.559 0 016.7-3.021 7.751 7.751 0 016.268 2.856 12.642 12.642 0 012.425 7.757 29.682 29.682 0 01-.156 3.707zm-7.109-.533a21.175 21.175 0 00.152-3.352q-.279-4.418-3.656-4.494a5.962 5.962 0 00-5.256 2.869l-1.98 10.918a4.087 4.087 0 004.113 2.844q5.281.152 6.475-7.668zM118.982 39a7.412 7.412 0 01-.279-2.488 9.3 9.3 0 01-7.008 3 8.431 8.431 0 01-5.979-2.349 7.106 7.106 0 01-2.222-5.675 8.214 8.214 0 013.771-6.894q3.593-2.4 9.636-2.4l3.352.051.355-1.65a5.732 5.732 0 00.076-1.6 2.75 2.75 0 00-.9-1.866 3.1 3.1 0 00-2.044-.7 4.373 4.373 0 00-2.844.825 4 4 0 00-1.5 2.526l-7.186.025a7.986 7.986 0 013.618-6.386 14.013 14.013 0 018.493-2.4 10.13 10.13 0 017.311 2.781 8.134 8.134 0 012.209 6.894l-2.107 13.152-.127 1.625a7.839 7.839 0 00.432 3.047l-.026.482zm-5.51-5.053a6.557 6.557 0 005.41-2.691l.889-4.748-2.488-.025q-3.961.1-5.713 2.412a4.2 4.2 0 00-.788 2.056 2.437 2.437 0 00.571 2.171 2.894 2.894 0 002.117.825zM137.946 39h-7.211l6.779-39h7.186zm39.686-9.877q.533-3.023-2.971-4.623l-4.9-1.955q-8.531-3.809-8.1-10.486a9.632 9.632 0 012.031-5.484 12.213 12.213 0 015.205-3.745 18.428 18.428 0 017.236-1.308 12.537 12.537 0 018.659 3.188 10.619 10.619 0 013.25 8.265h-7.414a5.29 5.29 0 00-1.1-3.91 4.975 4.975 0 00-3.826-1.448 7.7 7.7 0 00-4.42 1.155 4.739 4.739 0 00-2.234 3.313q-.482 2.768 3.707 4.393l3.352 1.27 1.93.889q7.49 3.707 7.008 10.41a10.044 10.044 0 01-2.094 5.653 11.808 11.808 0 01-5.078 3.64 18.088 18.088 0 01-7.071 1.193 15.839 15.839 0 01-7.008-1.65 10.884 10.884 0 01-4.672-4.444 11.506 11.506 0 01-1.4-6.094l7.439.025q-.351 6.019 5.921 6.12a7.772 7.772 0 004.468-1.19 4.647 4.647 0 002.082-3.177zm24.984-24.35l-1.193 6.754h4.57l-.939 5.383h-4.572l-2.334 13.762a3.5 3.5 0 00.2 1.98q.355.686 1.727.736.406.025 2.184-.127l-.506 5.612a12.043 12.043 0 01-4.113.584 6.453 6.453 0 01-5.258-2.209 7.981 7.981 0 01-1.422-5.84l2.361-14.5h-3.882l.943-5.381h3.885l1.168-6.754zM221.282 39a7.412 7.412 0 01-.279-2.488 9.3 9.3 0 01-7.008 3 8.432 8.432 0 01-5.983-2.353 7.106 7.106 0 01-2.222-5.675 8.214 8.214 0 013.771-6.894q3.593-2.4 9.636-2.4l3.352.051.355-1.65a5.732 5.732 0 00.076-1.6 2.75 2.75 0 00-.9-1.866 3.1 3.1 0 00-2.044-.7 4.373 4.373 0 00-2.844.825 4 4 0 00-1.5 2.526l-7.186.025a7.986 7.986 0 013.618-6.386 14.013 14.013 0 018.493-2.4 10.13 10.13 0 017.313 2.78 8.134 8.134 0 012.209 6.894l-2.107 13.157-.127 1.625a7.839 7.839 0 00.432 3.047l-.025.482zm-5.51-5.053a6.557 6.557 0 005.408-2.691l.889-4.748-2.487-.026q-3.961.1-5.713 2.412a4.2 4.2 0 00-.787 2.057 2.437 2.437 0 00.571 2.171 2.894 2.894 0 002.116.825zM244.003 11.5l-.609 3.25a9.885 9.885 0 018-3.732 6.59 6.59 0 015.738 2.844q1.854 2.768 1.346 7.668L255.582 39h-7.16l2.945-17.545a8.215 8.215 0 00.051-1.8q-.33-2.59-3.25-2.666a6.162 6.162 0 00-5.054 2.611L239.682 39h-7.16l4.773-27.473zm30.824-.508a7.818 7.818 0 016.2 3.072L283.714 0h7.186l-6.754 39h-6.4l.406-2.945a8.892 8.892 0 01-7.159 3.478 7.908 7.908 0 01-4.494-1.345 8.473 8.473 0 01-2.983-3.8 15.289 15.289 0 01-1.155-5.522 20.811 20.811 0 01.076-3.1l.152-1.143a21.992 21.992 0 012.349-7.414 12.24 12.24 0 014.266-4.748 10.057 10.057 0 015.623-1.467zm-5.205 14.779a20.563 20.563 0 00-.127 3.25q.254 4.469 3.605 4.545a6.128 6.128 0 005.256-2.844l1.956-10.922a4.055 4.055 0 00-3.961-2.844 5.218 5.218 0 00-4.354 2.019q-1.74 2.099-2.375 6.796zM305.753 39a7.412 7.412 0 01-.279-2.488 9.3 9.3 0 01-7.008 3 8.431 8.431 0 01-5.984-2.353 7.106 7.106 0 01-2.222-5.675 8.214 8.214 0 013.771-6.894q3.593-2.4 9.636-2.4l3.352.051.355-1.65a5.732 5.732 0 00.076-1.6 2.75 2.75 0 00-.9-1.866 3.1 3.1 0 00-2.044-.7 4.373 4.373 0 00-2.844.825 4 4 0 00-1.5 2.526l-7.18.024a7.986 7.986 0 013.618-6.386 14.013 14.013 0 018.493-2.4 10.13 10.13 0 017.313 2.78 8.134 8.134 0 012.209 6.894l-2.108 13.158-.125 1.625a7.839 7.839 0 00.432 3.047l-.032.482zm-5.51-5.053a6.557 6.557 0 005.408-2.691l.889-4.748-2.488-.025q-3.961.1-5.713 2.412a4.2 4.2 0 00-.787 2.057 2.437 2.437 0 00.571 2.171 2.894 2.894 0 002.12.824zm35.725-15.539a14.782 14.782 0 00-2.412-.254 6.941 6.941 0 00-6.068 2.869L324.314 39h-7.16l4.773-27.473 6.729-.025-.66 3.352q2.59-3.885 6.4-3.885a10.444 10.444 0 012.488.355zm13.482-7.414a7.818 7.818 0 016.2 3.072L358.337 0h7.186l-6.754 39h-6.4l.406-2.945a8.892 8.892 0 01-7.16 3.479 7.908 7.908 0 01-4.493-1.346 8.473 8.473 0 01-2.983-3.8 15.289 15.289 0 01-1.155-5.522 20.811 20.811 0 01.076-3.1l.152-1.143a21.992 21.992 0 012.349-7.414 12.24 12.24 0 014.266-4.748 10.057 10.057 0 015.623-1.467zm-5.205 14.777a20.562 20.562 0 00-.127 3.25q.254 4.469 3.605 4.545a6.128 6.128 0 005.259-2.843l1.953-10.923a4.055 4.055 0 00-3.961-2.844 5.218 5.218 0 00-4.354 2.019q-1.738 2.099-2.375 6.796z" fill="#fff"/></svg>